<svg xmlns="http://www.w3.org/2000/svg" viewBox="0 0 128 128">
  <!-- Background circle -->
  <circle cx="64" cy="64" r="60" fill="#667eea"/>
  
  <!-- Wheel segments -->
  <path d="M64 4 A60 60 0 0 1 116.6 34 L64 64 Z" fill="#FF6B6B"/>
  <path d="M116.6 34 A60 60 0 0 1 116.6 94 L64 64 Z" fill="#4ECDC4"/>
  <path d="M116.6 94 A60 60 0 0 1 64 124 L64 64 Z" fill="#45B7D1"/>
  <path d="M64 124 A60 60 0 0 1 11.4 94 L64 64 Z" fill="#FFEAA7"/>
  <path d="M11.4 94 A60 60 0 0 1 11.4 34 L64 64 Z" fill="#DDA0DD"/>
  <path d="M11.4 34 A60 60 0 0 1 64 4 L64 64 Z" fill="#96CEB4"/>
  
  <!-- Center circle -->
  <circle cx="64" cy="64" r="16" fill="#2c3e50"/>
  <circle cx="64" cy="64" r="12" fill="#34495e"/>
  
  <!-- Pointer -->
  <polygon points="64,8 56,24 72,24" fill="#e74c3c"/>
</svg>
